# xmcd
#
# Track frame offsets:
#	150
#	14662
#	26304
#	39121
#	54913
#	65071
#	77716
#	88031
#	97940
#	114139
#	124167
#	138026
#	152317
#	164369
#	182270
#	210259
#
# Disc length: 2809 seconds
#
# Revision: 2
# Processed by: cddbd v1.5.2PL0 Copyright (c) Steve Scherf et al.
# Submitted via: audiograbber 1.83.01
#
DISCID=b00af710
DTITLE=Various Artist - Classic Country: Volume 2
DYEAR=1900
DGENRE=Country
TTITLE0=John Denver - Take me Home, Country Roads
TTITLE1=Johnny Cash - Ring of Fire
TTITLE2=Johnny Paycheck - Take this Job and Shove It
TTITLE3=Kris Kristofferson - Why Me Lord
TTITLE4=Lefty Frizzel - If you've got the Money I've got the Time
TTITLE5=Merle Haggard - Okie from Muskogee
TTITLE6=Patsy Kline - Blue Moon of Kentucky
TTITLE7=Patsy Kline - Walkin' after Midnight
TTITLE8=Pee Wee King - Tennessee Waltz
TTITLE9=Tammy Wynette - Your Good Girl's Gonna Go Bad
TTITLE10=Tanya Tucker - Texas When I Die
TTITLE11=Tom Jones - Green, Green Grass of Home
TTITLE12=Waylon Jennings And Willie Nelson - Mama's Don't Let Your Babies Grow 
TTITLE12=up to be Cowboys
TTITLE13=Willie Nelson - Always On My Mind
TTITLE14=Willie Nelson - Whiskey River
TTITLE15=Data - Data Track
EXTD=Karaoke
EXTT0=
EXTT1=
EXTT2=
EXTT3=
EXTT4=
EXTT5=
EXTT6=
EXTT7=
EXTT8=
EXTT9=
EXTT10=
EXTT11=
EXTT12=
EXTT13=
EXTT14=
EXTT15=
PLAYORDER=
